<svg xmlns="http://www.w3.org/2000/svg" width="632" height="913" viewBox="455 324 632 913" version="1.1">
	<path d="M 743 337.868 C 725.597 341.578, 718.829 343.917, 706.111 350.616 C 678.592 365.112, 661.388 380.886, 656.976 395.668 C 656.156 398.418, 655.012 400.045, 653.616 400.450 C 652.452 400.787, 644.750 402.822, 636.500 404.973 C 628.250 407.123, 616.164 410.694, 609.642 412.909 C 603.121 415.123, 589.171 419.260, 578.642 422.101 C 568.114 424.942, 557.925 428.055, 556 429.018 C 552.242 430.899, 545.725 432.867, 514.500 441.547 C 490.194 448.303, 476.918 452.592, 474.394 454.503 C 470.700 457.299, 478.323 456.170, 494.220 451.565 C 502.642 449.126, 520.550 444.395, 534.016 441.050 C 547.482 437.706, 562.550 433.658, 567.500 432.055 C 572.450 430.452, 582.498 427.477, 589.828 425.443 C 602.247 421.999, 631.418 411.498, 649.206 404.069 C 656.714 400.933, 657.007 400.679, 660.608 394.175 C 665.091 386.078, 677.374 373.642, 688.240 366.197 C 698.393 359.241, 716.848 349.848, 725.561 347.203 C 737.097 343.700, 749.480 342, 763.455 342 C 779.294 342, 791.738 343.959, 806 348.698 C 837.177 359.057, 853.960 369.098, 878.382 392 C 887.555 400.602, 885.451 397.043, 873.527 383.787 C 862.857 371.926, 852.539 363.155, 842.039 357.023 C 833.507 352.040, 828.697 349.953, 814 344.860 C 794.692 338.170, 784.056 335.915, 769.500 335.426 C 757.958 335.039, 754.986 335.313, 743 337.868 M 741.500 354.125 C 727.920 357.973, 697.515 374.044, 685.500 383.725 C 678.452 389.404, 669.629 400.706, 667.603 406.651 C 665.534 412.724, 666.812 412.762, 670.810 406.746 C 682.499 389.155, 695.699 379.121, 722.500 367.453 C 742.129 358.907, 748.369 357.596, 766 358.312 C 773.975 358.636, 783.200 359.412, 786.500 360.036 C 789.800 360.661, 802.824 365.268, 815.442 370.274 C 835.377 378.184, 839.969 380.435, 850.471 387.439 C 857.118 391.872, 864.879 396.976, 867.716 398.781 C 872.993 402.137, 876.308 406.352, 877.534 411.266 C 878.479 415.052, 881.743 417.370, 891.333 421.068 C 895.825 422.799, 906.886 427.124, 915.913 430.678 C 924.940 434.232, 939.261 438.904, 947.738 441.060 C 956.214 443.217, 968.674 447.208, 975.426 449.931 C 982.179 452.654, 991.483 455.847, 996.102 457.027 C 1008.254 460.130, 1041.485 466.710, 1048.500 467.401 C 1054.273 467.970, 1054.387 467.938, 1051.500 466.542 C 1049.850 465.743, 1047.791 465.070, 1046.925 465.045 C 1046.059 465.020, 1042.144 463.909, 1038.225 462.576 C 1034.306 461.244, 1023.765 458.295, 1014.800 456.024 C 994.096 450.780, 985.139 447.922, 972.530 442.536 C 966.026 439.758, 956.554 436.892, 945.961 434.497 C 936.908 432.449, 924.775 429.072, 919 426.991 C 913.225 424.910, 902.741 421.136, 895.702 418.604 C 888.664 416.072, 882.026 414, 880.952 414 C 879.601 414, 878.993 413.308, 878.978 411.750 C 878.938 407.679, 875.337 401.430, 870.881 397.700 C 859.286 387.993, 842.772 375.916, 837.436 373.241 C 834.171 371.604, 822.645 366.825, 811.823 362.619 C 789.253 353.849, 780.109 351.970, 760.500 352.077 C 751.713 352.125, 746.626 352.673, 741.500 354.125 M 890 398.866 C 893.398 401.616, 896.694 403.038, 933.370 417.567 C 986.977 438.803, 1037.602 453.969, 1069.824 458.446 C 1075.422 459.224, 1074.464 457.423, 1068.767 456.461 C 1066.444 456.068, 1057.809 453.302, 1049.579 450.315 C 1041.348 447.327, 1030.147 443.753, 1024.688 442.373 C 1019.230 440.993, 1007.729 437.391, 999.132 434.369 C 990.534 431.347, 978.147 427.525, 971.605 425.878 C 960.713 423.134, 942.672 416.609, 908.616 403.094 C 901.530 400.282, 893.880 397.725, 891.616 397.412 L 887.500 396.842 890 398.866 M 661 414.004 C 654.086 417.796, 615.614 429.334, 541 449.994 C 506.985 459.412, 501.540 461.109, 494.500 464.485 L 487.500 467.843 487.250 549.171 C 487.113 593.902, 486.559 662.900, 486.018 702.500 C 484.597 806.611, 484.331 1084.022, 485.650 1086.357 C 487.651 1089.899, 488.143 1077.368, 489.058 999.500 C 492.143 736.834, 492.744 574.715, 490.846 517 C 490.167 496.375, 489.587 477.266, 489.556 474.536 L 489.500 469.573 504.997 464.785 C 513.520 462.152, 529.495 458.001, 540.497 455.562 C 551.499 453.122, 564.325 449.974, 569 448.567 C 573.675 447.159, 584.475 443.967, 593 441.474 C 632.414 429.944, 658.172 419.887, 663.573 413.919 C 665.704 411.565, 665.430 411.574, 661 414.004 M 471.581 474.750 C 471.232 484.512, 470.263 506, 469.427 522.500 C 467.053 569.367, 465.501 762.290, 466.955 829.541 C 467.598 859.263, 467.853 885.813, 467.521 888.541 C 466.748 894.903, 468.715 1094.583, 469.588 1098.279 C 470.414 1101.776, 474.427 1104.169, 494.307 1113.023 C 502.663 1116.744, 515.575 1122.677, 523 1126.207 C 556.084 1141.937, 580.585 1148.919, 654.237 1163.607 C 656.285 1164.016, 657.463 1165.258, 658.916 1168.543 C 663.883 1179.771, 676.742 1193.391, 691.907 1203.487 C 725.415 1225.794, 769.367 1233.573, 804.679 1223.447 C 826.715 1217.127, 854.387 1199.437, 871.456 1180.758 C 879.064 1172.432, 885.632 1163.299, 884.689 1162.356 C 884.336 1162.002, 877.398 1168.420, 869.273 1176.619 C 844.353 1201.763, 825.652 1212.770, 797 1219.159 C 783.442 1222.182, 759.253 1222.387, 746.095 1219.591 C 725.388 1215.191, 702.764 1205.631, 687.536 1194.848 C 675.673 1186.447, 663.863 1174.415, 660.112 1166.909 C 658.491 1163.664, 657.005 1161.484, 656.812 1162.065 C 656.595 1162.716, 653.006 1161.917, 647.480 1159.990 C 624.517 1151.980, 614.192 1148.788, 605.392 1146.978 C 594.472 1144.731, 589.873 1143.484, 570.500 1137.517 C 562.800 1135.146, 554.025 1132.639, 551 1131.947 C 544.917 1130.555, 535.365 1126.794, 518 1118.954 C 496.319 1109.166, 477.498 1101.253, 474.179 1100.532 C 471.968 1100.051, 471.032 1099.358, 471.379 1098.456 C 472.058 1096.686, 473.407 457, 472.731 457 C 472.447 457, 471.930 464.988, 471.581 474.750 M 1073.638 469.066 C 1073.321 474.255, 1072.826 509.325, 1072.537 547 C 1072.248 584.675, 1071.528 676.250, 1070.936 750.500 C 1070.337 825.591, 1070.164 933.063, 1070.547 992.680 L 1071.234 1099.860 1066.867 1100.990 C 1064.465 1101.612, 1058 1103.710, 1052.500 1105.652 C 1047 1107.595, 1033.275 1112.349, 1022 1116.217 C 1010.725 1120.086, 994.321 1126.364, 985.546 1130.169 C 976.772 1133.974, 964.397 1138.614, 958.046 1140.481 C 938.298 1146.288, 916.049 1152.723, 902.500 1156.548 C 881.222 1162.554, 882.377 1163.277, 906.500 1159.054 C 933.469 1154.333, 965.957 1144.914, 989.732 1134.925 C 1013.201 1125.063, 1041.425 1113.826, 1055 1108.938 C 1061.325 1106.661, 1067.811 1104.053, 1069.414 1103.143 L 1072.328 1101.488 1072.709 1081.994 C 1072.919 1071.272, 1073.535 1053.725, 1074.077 1043 C 1076.590 993.351, 1077.751 465.618, 1075.357 461.566 C 1074.424 459.986, 1074.109 461.361, 1073.638 469.066 M 1056.647 473 C 1053.893 481.730, 1052.223 959.646, 1054.760 1013 C 1057.982 1080.754, 1060.229 1105.979, 1059.259 1063.500 C 1058.920 1048.650, 1058.713 911.625, 1058.798 759 C 1058.884 606.375, 1058.612 479.025, 1058.194 476 C 1057.551 471.341, 1057.315 470.882, 1056.647 473 M 660.156 520.030 C 641.098 522.642, 617.469 535.163, 599.502 552.170 C 580.556 570.104, 564.933 594.918, 558.590 617.151 C 550.858 644.252, 554.338 676.052, 567.196 695.797 C 575.527 708.590, 591.896 720.150, 603.750 721.611 C 611.219 722.531, 610.405 720.634, 602.493 718.682 C 582.980 713.866, 568.175 695.301, 562.475 668.500 C 560.348 658.501, 560.298 639.198, 562.373 629.500 C 568.043 603.003, 580.150 581.070, 599.921 561.480 C 612.814 548.705, 623.319 540.953, 636.500 534.488 C 664.846 520.585, 687.846 521.025, 704.180 535.782 C 722.037 551.914, 722.123 587.492, 704.407 629.778 C 685.563 674.755, 653.395 712.524, 608.336 742.576 L 597.173 750.022 570.336 749.810 C 542.643 749.591, 539.732 749.884, 528.754 753.991 C 523.049 756.125, 517.367 760.904, 515.878 764.820 C 514.566 768.272, 516.796 772.156, 521.376 774.393 C 533.488 780.306, 560.057 774.897, 592 760.015 C 601.468 755.603, 606.076 754.029, 611 753.523 C 616.669 752.941, 624.495 751.487, 633 749.436 C 634.375 749.105, 632.113 750.355, 627.974 752.215 C 607.119 761.586, 589.267 774.569, 583.346 784.672 C 580.332 789.815, 580.275 798.249, 583.250 798.814 C 584.613 799.073, 585 798.458, 585 796.033 C 585 781.278, 614.636 759.883, 652.106 747.588 C 681.324 738.001, 701.972 734.954, 742.327 734.273 C 760.426 733.968, 773.532 734.132, 774.070 734.670 C 774.624 735.224, 772.364 739.119, 768.339 744.543 C 751.940 766.642, 737.796 790.383, 720.950 824.083 C 696.541 872.915, 684.934 902.496, 679.453 929.845 C 677.080 941.682, 677.723 956.795, 680.874 963.267 C 683.324 968.299, 686.128 970.549, 688.714 969.556 C 690.111 969.020, 690.102 968.770, 688.629 967.143 C 687.677 966.091, 686.587 962.210, 686.036 957.914 C 684.080 942.652, 687.957 924.517, 699.517 894.866 C 717.889 847.744, 738.735 808.920, 774.751 754.750 L 787.218 736 791.359 736.003 C 795.287 736.005, 841.697 742.328, 847 743.583 C 849.380 744.146, 849.154 744.495, 842.285 750.837 C 834.276 758.232, 822 772.703, 822 774.748 C 822 776.238, 825.884 777.971, 827.687 777.286 C 828.340 777.038, 828.638 776.219, 828.349 775.467 C 827.319 772.782, 857.153 746, 861.174 746 C 862.458 746, 875.656 747.777, 890.504 749.950 C 932.681 756.121, 945.202 757.299, 968.500 757.290 C 984.481 757.283, 991.412 756.873, 997.500 755.574 C 1007.955 753.343, 1018.303 748.558, 1022.153 744.173 C 1024.954 740.983, 1025.182 740.196, 1024.808 735.026 C 1024.290 727.861, 1021.642 724.018, 1013.673 718.867 C 1000.990 710.670, 983.115 707.382, 956.154 708.289 C 938.449 708.885, 928.544 710.348, 910.213 715.074 C 890.754 720.091, 876.673 726.288, 858.404 737.876 L 853.307 741.108 824.904 737.110 C 809.282 734.911, 795.150 732.974, 793.500 732.806 C 791.001 732.551, 790.544 732.102, 790.762 730.117 C 791.384 724.453, 784.602 722.941, 781.037 727.948 L 778.938 730.896 750.219 730.825 C 720.932 730.753, 708.895 731.578, 687.500 735.124 C 677.313 736.812, 661.050 740.463, 654.357 742.563 C 653.336 742.884, 655.886 741.314, 660.023 739.076 C 670.981 733.146, 679.920 725.594, 691.652 712.352 C 701.408 701.341, 702.597 699.090, 698.703 699.015 C 698.264 699.007, 692.639 704.090, 686.203 710.311 C 669.382 726.568, 657.949 734.463, 642.373 740.578 C 633.486 744.067, 617.179 748.512, 616.341 747.675 C 616.069 747.402, 618.693 745.259, 622.173 742.912 C 640.168 730.777, 665.886 707.265, 679.502 690.500 C 700.731 664.363, 718.143 629.033, 724.597 599 C 726.801 588.743, 727.055 568.158, 725.079 560 C 718.578 533.169, 690.486 515.873, 660.156 520.030 M 945.996 711.993 C 921.834 714.790, 894.246 723.335, 877.500 733.209 C 870.079 737.585, 863.740 742.074, 864.255 742.588 C 864.750 743.083, 922.362 750.744, 935 751.996 C 951.905 753.669, 983.906 753.461, 992.524 751.622 C 1005.416 748.870, 1014.607 743.777, 1016.968 738.078 C 1021.075 728.162, 1010.491 717.760, 992 713.539 C 983.238 711.540, 957.416 710.672, 945.996 711.993 M 551 753.642 C 542.355 754.625, 532.900 757.312, 528.691 759.981 C 524.015 762.947, 520.441 768.102, 521.375 770.535 C 523.534 776.160, 553.421 770.157, 577.064 759.349 C 584.204 756.086, 584.968 755.502, 582.843 754.933 C 579.710 754.095, 555.607 753.118, 551 753.642 M 904 772.490 C 895.101 774.897, 879.278 783.405, 868 791.846 C 829.753 820.475, 789.934 876.601, 760.962 942.720 C 758.017 949.441, 755.512 954.841, 755.396 954.720 C 755.119 954.431, 761.143 927.872, 763.951 917 C 768.015 901.270, 775.214 880.629, 783.625 860.592 C 792.310 839.904, 792.741 837.465, 787.588 838.202 C 786.045 838.422, 784.129 841.240, 780.244 849 C 761.395 886.659, 748.881 932.061, 740.912 991.703 C 737.431 1017.752, 737.508 1019, 742.584 1019 C 745.150 1019, 745.594 1017.882, 748.457 1004.229 C 751.608 989.198, 759.607 963.951, 766.271 948 C 789.688 891.951, 828.343 834.523, 862.793 804.601 C 888.538 782.240, 916.012 770.458, 925.720 777.614 C 931.603 781.950, 933.337 794.030, 930.459 810.619 C 926.428 833.856, 917.731 855.922, 890.363 912.351 C 860.746 973.416, 852.752 993.433, 848.999 1015.926 C 847.857 1022.768, 847.902 1023.455, 849.571 1024.676 C 852.665 1026.938, 854.829 1026.170, 859.227 1021.250 C 874.226 1004.469, 890.467 991.505, 906.778 983.297 C 918.401 977.447, 918.494 977.512, 920.003 992.454 C 921.336 1005.649, 923.694 1011.133, 929.914 1015.500 C 934.001 1018.370, 934.626 1018.497, 944.343 1018.437 C 953.144 1018.382, 955.836 1017.922, 964.500 1014.994 C 975.458 1011.290, 1022.158 988.257, 1022.780 986.250 C 1023.741 983.145, 1016.751 985.775, 995.804 996.400 C 958.369 1015.389, 939.225 1019.733, 933.831 1010.461 C 932.731 1008.571, 931.526 1002.806, 930.644 995.207 C 929.781 987.780, 928.589 982.021, 927.603 980.517 C 923.117 973.671, 912.728 973.218, 901.009 979.357 C 891.110 984.542, 880.957 991.135, 871.320 998.634 C 866.820 1002.135, 862.890 1005, 862.586 1005 C 861.705 1005, 869.342 984.261, 875.941 968.727 C 879.266 960.902, 888.785 940.550, 897.094 923.500 C 928.721 858.606, 936.574 838.903, 940.527 814.530 C 944.201 791.880, 940.535 779.782, 928.096 773.507 C 923.391 771.133, 910.957 770.608, 904 772.490 M 486 1091.444 C 486 1092.143, 507.713 1102.515, 516 1105.774 C 536.877 1113.983, 565 1122.260, 600 1130.495 C 612.925 1133.536, 625.525 1136.661, 628 1137.438 C 639.618 1141.087, 655.765 1145.891, 658.189 1146.420 C 663.153 1147.504, 662.222 1144.991, 656.726 1142.475 C 649.321 1139.085, 599.454 1124.117, 576.913 1118.518 C 558.775 1114.013, 531.882 1105.880, 502.537 1096.025 C 487.757 1091.061, 486 1090.574, 486 1091.444 M 1046 1095.635 C 1039.125 1098.114, 1026.975 1101.695, 1019 1103.593 C 992.658 1109.861, 987.591 1111.233, 978 1114.690 C 962.728 1120.194, 908.690 1138.480, 894.029 1143.104 C 881.187 1147.154, 877.714 1149.388, 887.779 1147.124 C 890.375 1146.539, 894.750 1145.776, 897.500 1145.428 C 907.507 1144.160, 920.813 1140.819, 935 1136.012 C 942.975 1133.310, 954.675 1129.456, 961 1127.446 C 967.325 1125.437, 977 1121.873, 982.500 1119.527 C 988 1117.181, 999.025 1113.599, 1007 1111.567 C 1032.052 1105.183, 1045.242 1100.974, 1053.250 1096.808 C 1060.377 1093.101, 1062.863 1090.904, 1059.750 1091.064 C 1059.063 1091.099, 1052.875 1093.156, 1046 1095.635 M 663.052 1149.156 C 662.955 1152.227, 673.435 1166.427, 682.500 1175.505 C 703.579 1196.618, 717.439 1203.926, 750.067 1211.134 C 770.625 1215.676, 794.752 1213.756, 816.640 1205.836 C 831.861 1200.328, 852.584 1184.545, 867.733 1166.921 C 876.304 1156.950, 881.304 1149.970, 880.471 1149.138 C 880.174 1148.840, 871.733 1156.937, 861.715 1167.131 C 838 1191.263, 826.988 1198.513, 805.500 1204.142 C 797.405 1206.263, 794.439 1206.494, 776 1206.441 C 755.708 1206.383, 755.358 1206.345, 741.500 1202.724 C 724.345 1198.242, 711.027 1191.896, 697.305 1181.666 C 678.383 1167.560, 673.928 1163.214, 664.802 1149.965 C 663.524 1148.108, 663.092 1147.908, 663.052 1149.156" stroke="none" fill="currentColor" fill-rule="evenodd"/>
</svg>